<svg width="1503" height="443" viewBox="0 0 1503 443" fill="none" xmlns="http://www.w3.org/2000/svg">
<path d="M1307.07 240.676C1307.07 240.676 1304.68 237.666 1304.68 236.662C1312.86 230.976 1321.04 225.625 1328.88 219.605C1362.62 193.851 1429.76 138.998 1409.65 85.8178C1401.81 65.4153 1381.71 60.0638 1363.64 59.0604C1352.4 58.3915 1335.7 58.057 1324.79 59.0604C1322.4 59.0604 1317.29 60.0638 1319.68 64.0774C1321.38 66.7532 1340.13 65.4153 1344.22 66.0842C1362.62 68.091 1378.3 82.1386 1382.73 102.207C1391.93 144.015 1358.19 182.813 1330.92 206.56C1327.52 209.571 1301.96 229.639 1300.25 229.639C1299.23 229.639 1298.55 228.635 1297.87 227.966C1275.71 196.526 1249.81 167.428 1227.66 135.988C1212.32 114.582 1183.69 70.0978 1228.34 65.7498C1235.15 65.0808 1245.38 67.0876 1251.17 65.7498C1253.22 65.0808 1255.6 62.0706 1253.9 60.3983C1253.22 59.7294 1250.49 59.3949 1249.13 59.3949C1233.79 58.057 1210.62 58.3915 1195.28 59.3949C1148.59 62.0706 1167.67 110.903 1187.44 135.988L1272.64 250.71C1237.88 274.792 1200.05 302.218 1176.53 340.347C1160.86 365.767 1146.54 418.278 1182.67 429.984C1198.69 435.336 1237.2 435.336 1254.24 433.663C1256.63 433.663 1262.76 432.66 1260.38 428.646C1258.67 425.971 1244.36 427.309 1240.95 426.974C1201.41 423.964 1189.49 401.555 1199.37 359.412C1209.59 315.597 1244.36 280.478 1278.1 258.068L1362.62 372.456C1370.12 384.162 1380.34 398.544 1377.62 413.93C1374.21 433.998 1342.51 424.967 1329.9 427.309C1324.11 428.312 1325.47 433.329 1331.95 433.998C1348.31 435.336 1374.55 435.001 1391.25 433.998C1433.51 430.988 1418.17 391.186 1401.13 366.436C1371.82 323.958 1336.04 284.157 1306.73 241.345L1307.07 240.676Z" fill="#0011FE"/>
<path d="M1502.01 2.2011C1498.27 -6.16057 1498.27 11.9006 1497.93 13.2385C1494.86 38.3235 1456 35.9823 1443.74 53.3745C1436.92 63.0741 1437.26 77.7906 1435.9 89.497V433.663H1468.27V76.1183C1468.27 68.76 1471.68 56.7192 1475.77 50.6988C1482.59 40.6648 1495.2 37.3201 1499.63 24.2759C1500.99 20.2623 1503.38 5.88024 1502.01 2.53557V2.2011Z" fill="#0011FE"/>
<path d="M1109.39 321.283C1105.64 393.862 1039.18 418.278 984.653 408.578C923.306 397.541 882.749 330.648 893.655 262.416C904.561 195.188 959.774 164.752 999.309 121.271C1018.74 99.8654 1017.71 69.0945 986.698 67.0877C956.706 65.0809 874.91 68.0911 830.945 67.4221C816.971 59.3949 800.271 57.0537 784.252 56.0503C764.144 55.0469 740.969 58.0571 726.995 73.777C694.958 109.899 722.564 156.725 732.107 196.192C743.695 244.021 751.534 304.894 747.785 353.726C746.422 372.456 735.516 409.582 710.977 410.92C697.344 411.923 687.801 403.227 683.37 392.19C664.625 346.368 696.662 281.815 702.797 234.99C709.954 183.148 713.022 46.0163 623.727 54.0435C555.564 60.0639 546.702 145.687 546.021 193.851C545.68 217.598 546.021 255.393 547.725 293.856L492.853 99.531C483.992 76.1183 471.382 56.3847 447.865 50.6988C383.792 34.9789 377.657 110.903 359.934 159.066C337.1 220.608 300.291 273.788 270.981 330.982C260.416 351.385 253.94 374.463 260.756 396.538C224.289 430.653 167.031 433.663 125.111 410.92C21.843 355.398 -4.3999 179.134 82.8494 93.845C122.725 54.7124 189.525 49.0265 235.195 79.1285C257.007 93.5106 275.412 123.947 264.165 152.711C252.236 183.148 224.97 164.752 204.521 166.424C192.593 167.428 172.144 174.786 160.897 180.472C159.193 181.141 151.695 184.82 156.466 187.161C157.829 187.83 178.96 178.8 182.368 177.796C205.203 171.441 212.701 177.796 233.15 184.151C283.591 199.202 322.444 144.684 285.636 98.5276C259.393 65.4154 206.225 46.6852 167.372 48.692C42.6329 55.3813 -40.1858 210.574 20.139 335.999C59.6738 417.944 155.103 459.752 233.832 427.978C241.671 424.967 254.281 417.944 265.187 409.582C288.363 450.387 344.598 442.694 367.092 404.565C387.2 370.115 404.581 316.266 443.094 302.218C489.786 285.495 521.823 330.648 538.523 371.787C546.362 391.521 552.496 412.258 557.949 432.995H608.731C606.686 429.984 604.982 426.64 603.278 423.295C587.26 388.845 585.215 347.037 583.17 309.911C581.466 282.15 581.125 254.724 581.807 226.963C582.148 200.54 582.488 173.114 585.897 146.691C588.282 127.626 594.076 109.565 607.709 95.1829C620.66 81.8042 639.405 68.0911 658.832 77.4562C693.254 93.845 694.958 175.12 692.913 205.891C688.823 267.768 644.858 352.388 677.236 409.247C702.797 454.066 768.234 432.326 788.683 393.527C821.742 329.979 792.432 220.274 774.028 154.049C767.212 129.299 754.261 108.227 765.167 81.4698C778.118 50.0299 825.491 68.0911 837.761 90.5004C843.896 101.538 843.896 114.582 845.259 126.957C846.281 138.329 846.281 150.035 846.281 161.407C846.281 182.479 845.6 203.885 844.918 224.956C843.214 282.819 839.806 362.422 809.132 413.595C805.042 420.285 800.612 427.309 796.522 433.329H856.165V191.509C856.165 177.796 857.528 163.749 856.847 150.035C856.165 136.657 857.869 123.278 856.506 109.899C854.802 95.8519 850.03 83.1421 840.487 74.1115C889.906 73.1081 1004.42 63.0741 981.927 122.275C973.747 144.015 937.28 171.441 920.92 188.499C881.045 229.973 858.21 290.846 872.865 353.057C899.79 467.445 1044.64 467.779 1100.53 379.48L1110.07 362.756V433.998H1143.47V59.0605H1110.07V321.283H1109.39ZM435.937 297.535C416.51 306.566 401.173 325.296 389.245 344.361C380.043 359.077 373.226 376.804 360.957 388.176C330.965 415.937 281.887 396.872 284.614 349.378C286.659 316.6 322.104 260.41 337.1 229.973C357.208 188.834 374.93 147.694 384.132 99.531C386.859 85.4834 396.402 72.7736 410.375 67.7566C440.367 57.0537 453.318 93.5106 462.52 117.927C481.265 182.144 498.988 246.362 516.711 310.914C496.261 290.846 461.157 285.829 436.278 297.201L435.937 297.535Z" fill="#0011FE"/>
</svg>
